<?xml version="1.0" standalone="no"?>
<!DOCTYPE svg PUBLIC "-//W3C//DTD SVG 20010904//EN"
 "http://www.w3.org/TR/2001/REC-SVG-20010904/DTD/svg10.dtd">
<svg version="1.0" xmlns="http://www.w3.org/2000/svg"
 width="120.000000pt" height="120.000000pt" viewBox="0 0 120.000000 120.000000"
 preserveAspectRatio="xMidYMid meet">

<g transform="translate(0.000000,120.000000) scale(0.100000,-0.100000)"
fill="#000000" stroke="none">
<path d="M0 600 l0 -600 600 0 600 0 0 600 0 600 -600 0 -600 0 0 -600z m670
476 c0 -39 3 -45 30 -56 55 -23 120 -120 120 -179 0 -7 -24 -11 -67 -11 -65 1
-69 2 -88 33 -17 26 -28 33 -62 35 -34 3 -44 -1 -62 -24 -45 -58 -33 -81 135
-254 110 -114 131 -146 141 -215 12 -88 -44 -195 -117 -225 -27 -11 -30 -17
-30 -56 l0 -44 -70 0 -70 0 0 44 c0 39 -3 45 -30 56 -55 23 -120 120 -120 179
0 7 24 11 68 11 64 -1 68 -2 87 -33 17 -26 28 -33 62 -35 34 -3 44 1 62 24 11
15 21 37 21 49 0 35 -52 104 -158 207 -104 102 -132 144 -140 215 -10 87 46
193 118 223 27 11 30 17 30 56 l0 44 70 0 70 0 0 -44z"/>
</g>
</svg>
